<?xml version="1.0" encoding="UTF-8"?>
<svg width="248px" height="37px" viewBox="0 0 248 37" version="1.1" xmlns="http://www.w3.org/2000/svg" xmlns:xlink="http://www.w3.org/1999/xlink">
    <!-- Generator: Sketch 44.1 (41455) - http://www.bohemiancoding.com/sketch -->
    <title>Group 4</title>
    <desc>Created with Sketch.</desc>
    <defs>
        <polygon id="path-1" points="18.9284325 18.9573787 18.9284325 0.000562358277 0.00035094246 0.000562358277 0.00035094246 18.9573787"></polygon>
        <polygon id="path-3" points="15.2706748 18.1258217 15.2706748 0.216207229 0.25301273 0.216207229 0.25301273 18.1258217 15.2706748 18.1258217"></polygon>
        <polygon id="path-5" points="0.206826865 0.279421687 8.06978109 0.279421687 8.06978109 19.5795976 0.206826865 19.5795976 0.206826865 0.279421687"></polygon>
    </defs>
    <g id="Page-1" stroke="none" stroke-width="1" fill="none" fill-rule="evenodd">
        <g id="Question" transform="translate(-59.000000, -47.000000)">
            <g id="Group-4" transform="translate(59.000000, 47.000000)">
                <g id="Group-2">
                    <g id="Group">
                        <path d="M16.9980326,29.535398 C14.3964745,26.367205 12.5055859,22.4965097 12.5055859,19.5559367 C12.5055859,17.1075775 14.1818892,15.0578421 16.9980326,15.0578421 C19.814176,15.0578421 21.4904793,17.1075775 21.4904793,19.5559367 C21.4904793,22.4965097 19.5995907,26.367205 16.9980326,29.535398 M25.9817723,35.3021563 C23.4390521,35.3021563 20.4890813,33.3610314 17.9994306,30.6815859 C20.9078688,27.2141362 22.9868079,22.912465 22.9868079,19.5559367 C22.9868079,16.3380601 20.7152035,13.5569367 16.9980326,13.5569367 C13.2797081,13.5569367 11.0081037,16.3380601 11.0081037,19.5559367 C11.0081037,22.912465 13.0881965,27.2141362 15.9966346,30.6815859 C13.5058302,33.3610314 10.5570131,35.3021563 8.01313921,35.3021563 C4.66976208,35.3021563 2.02436396,33.124168 2.02436396,29.3043117 C2.02436396,29.0350962 2.02436396,28.9230193 2.02782501,28.785523 C2.05666712,27.8403801 2.28394293,26.9749619 3.08575352,25.0996967 C3.9037157,23.0534276 10.7162216,9.09928218 12.7893923,5.29329103 C14.0515229,3.07948441 15.2398177,2.30996707 16.9980326,2.30996707 C18.7562475,2.30996707 19.9445424,3.07948441 21.2135951,5.30600078 C23.2798437,9.09928218 30.0923495,23.0534276 30.9022359,25.0823652 C31.7121223,26.9749619 31.9393981,27.8403801 31.9670866,28.785523 C31.9717013,28.9230193 31.9717013,29.0350962 31.9717013,29.3043117 C31.9717013,33.124168 29.3251495,35.3021563 25.9817723,35.3021563 M33.4634151,28.7404611 C33.4299583,27.5850297 33.1565351,26.5428305 32.2855034,24.5092712 C31.4560044,22.4329609 24.6204249,8.42797652 22.5218731,4.57461268 C20.9897803,1.88939003 19.3238602,0.810217068 16.9980326,0.810217068 C14.6722051,0.810217068 13.0062849,1.88939003 11.4811142,4.56190294 C9.37564038,8.42797652 2.54006084,22.4329609 1.70248603,24.5266027 C0.839530169,26.5428305 0.566106987,27.5850297 0.532650142,28.7404611 C0.528035405,28.8975998 0.52688172,29.021231 0.52688172,29.3043117 C0.52688172,34.02656 3.90140833,36.8019063 8.01313921,36.8019063 C10.9642637,36.8019063 14.2534176,34.7128862 16.9980326,31.8058207 C19.7426476,34.7128862 23.0318016,36.8019063 25.9817723,36.8019063 C30.0946569,36.8019063 33.4691835,34.02656 33.4691835,29.3043117 C33.4691835,29.021231 33.4680298,28.8975998 33.4634151,28.7404611" id="Page-1-Copy-2" fill="#1C1C1C"></path>
                        <g id="Page-1-Copy-3" transform="translate(54.231183, 10.714286)">
                            <mask id="mask-2" fill="white">
                                <use xlink:href="#path-1"></use>
                            </mask>
                            <g id="Clip-2"></g>
                            <path d="M10.1197768,9.47882993 L18.7936706,0.791800454 C18.9747569,0.610439909 18.9747569,0.31660771 18.7936706,0.135247166 C18.6125843,-0.044707483 18.3191964,-0.044707483 18.1381101,0.135247166 L9.46421627,8.82227664 L0.790322421,0.135247166 C0.610639881,-0.044707483 0.317251984,-0.044707483 0.136165675,0.135247166 C-0.0449206349,0.31660771 -0.0449206349,0.610439909 0.136165675,0.791800454 L8.80865575,9.47882993 L0.136165675,18.1658594 C-0.0449206349,18.34722 -0.0449206349,18.6410522 0.136165675,18.8224127 C0.226006944,18.91239 0.345327381,18.9573787 0.463244048,18.9573787 C0.581160714,18.9573787 0.700481151,18.91239 0.790322421,18.8224127 L9.46421627,10.1353832 L18.1381101,18.8224127 C18.2279514,18.91239 18.3472718,18.9573787 18.4651885,18.9573787 C18.5831052,18.9573787 18.7024256,18.91239 18.7936706,18.8224127 C18.9747569,18.6410522 18.9747569,18.34722 18.7936706,18.1658594 L10.1197768,9.47882993 Z" id="Fill-1" fill="#1C1C1C" mask="url(#mask-2)"></path>
                        </g>
                    </g>
                </g>
                <g id="Page-1" transform="translate(95.000000, 9.000000)">
                    <path d="M21.3085933,0.756756627 L13.516306,0.756756627 L13.516306,1.0816 C16.3499224,1.46032289 17.3133898,2.59649157 17.3133898,5.24786506 L17.2849969,15.0414072 L7.11464226,2.12723855 C6.43510433,1.26422651 5.37036871,0.756756627 4.24001383,0.756756627 L0,0.756756627 L0,1.0816 C1.34929607,1.14143133 2.26418001,1.58280482 2.81216394,2.24972048 C3.25383205,2.78726265 3.45699937,3.14217831 3.45699937,3.14217831 L3.45699937,15.0956 C3.45699937,17.7469735 2.66357417,18.8562024 0,19.2618651 L0,19.6136482 L7.76389438,19.6136482 L7.76389438,19.2618651 C4.87380757,18.8831422 4.13716826,17.7469735 4.13716826,15.0956 L4.13716826,3.81410602 L4.16556121,3.81410602 L17.0581688,20.0196241 L17.9932432,20.0196241 L17.9932432,5.24786506 C17.9932432,2.59649157 18.6450192,1.51451566 21.3085933,1.0816 L21.3085933,0.756756627 Z" id="Fill-1" fill="#1C1C1C"></path>
                    <path d="M49.3973284,7.46629157 C50.7005648,7.62855663 51.2958703,8.00759277 51.2958703,8.87311084 C51.2958703,9.19764096 51.1255126,9.8200747 50.8422141,10.6314 L48.77363,16.6649663 L48.6606891,16.6649663 L45.5661731,7.99067711 C45.3854046,7.48320723 44.8856887,7.14176145 44.3238238,7.14176145 L40.8396934,7.14176145 L40.8396934,7.46629157 C42.0580664,7.62855663 42.5681931,8.08841205 43.1067127,9.49554458 L43.5881309,10.7667253 L43.6054822,10.8143398 L41.495255,15.5623157 C41.4984098,15.5450867 41.4911538,15.5547976 41.4697014,15.6042916 C41.0699917,16.5164843 40.7330621,16.3742675 40.3598525,15.4216651 L37.9212136,9.19764096 C37.8757849,9.06764096 37.6647306,8.49062892 37.4779681,7.98065301 C37.2937294,7.47788193 36.7971683,7.14176145 36.2394046,7.14176145 L32.5656723,7.14176145 L32.5656723,7.46629157 C33.9256946,7.62855663 34.4642142,8.11535181 35.0308113,9.49554458 L39.22445,19.8028217 L40.3295667,19.8028217 L43.8963522,11.6162675 L47.0170528,19.8028217 L48.1786399,19.8028217 L51.8905449,9.79282169 C52.42938,8.30486988 53.4777108,7.60161687 54.5541191,7.46629157 L54.5541191,7.14176145 L49.3973284,7.14176145 L49.3973284,7.46629157 Z" id="Fill-3" fill="#1C1C1C"></path>
                    <path d="M60.170213,11.8218554 C57.9883725,11.2805542 56.8548629,10.6856867 56.8548629,9.52226506 C56.8548629,8.2780241 57.8467233,7.43913253 59.1502751,7.43913253 C60.8784593,7.43913253 61.7002775,8.41303614 63.3435983,10.9560241 L63.7404687,10.9560241 L63.7404687,6.92508434 L63.4287772,6.92508434 C63.4287772,6.92508434 62.9748055,7.95224096 61.8725281,7.4200241 C61.2276926,7.1086506 60.3538207,6.92508434 59.5184371,6.92508434 C56.5996418,6.92508434 54.7298083,8.57561446 54.7298083,10.9018313 C54.7298083,12.9041446 55.9478659,13.7699759 58.8382682,14.5543614 C61.6434916,15.3121205 62.4369168,15.9884337 62.4369168,17.232988 C62.4369168,18.2880241 61.5867057,19.3158072 60.0001708,19.3158072 C57.9596641,19.3158072 56.8832558,18.3422169 55.0698928,15.3390602 L54.6730224,15.3390602 L54.6730224,19.8301687 L54.9828211,19.8301687 C55.0790416,19.3042169 55.3191198,19.1197108 55.5746563,19.0429639 C55.9869851,18.9192289 56.3718673,19.0742892 56.5223499,19.132241 C56.5223499,19.132241 57.7785802,19.8301687 59.6600863,19.8301687 C62.7486083,19.8301687 64.4490305,17.936241 64.4490305,15.6635904 C64.4490305,13.5535181 63.0602998,12.5793012 60.170213,11.8218554" id="Fill-5" fill="#1C1C1C"></path>
                    <path d="M95.765066,7.43906988 C97.8898051,7.43906988 98.5983669,9.22461205 98.3150684,12.2005157 L92.8178778,12.2005157 C93.016313,9.0896 94.0646438,7.43906988 95.765066,7.43906988 M97.2383447,18.7478169 C94.2627635,18.7478169 92.7894849,16.5024193 92.7894849,13.3642506 L92.7894849,13.3100578 L92.7894849,12.6876241 L101.488769,12.6876241 C101.715282,9.46832289 99.7602695,6.92502169 95.9635012,6.92502169 C92.5061864,6.92502169 89.5593136,9.65752771 89.5593136,13.5265157 C89.5593136,17.2598651 92.1664174,19.830106 95.9635012,19.830106 C98.7964866,19.830106 100.41173,18.4232867 101.545555,16.6649976 L101.233864,16.4482265 C100.071961,17.8819855 99.0236302,18.7478169 97.2383447,18.7478169" id="Fill-7" fill="#1C1C1C"></path>
                    <path d="M109.478766,7.43906988 C111.603821,7.43906988 112.312383,9.22461205 112.028769,12.2005157 L106.531893,12.2005157 C106.730329,9.0896 107.778659,7.43906988 109.478766,7.43906988 M110.95236,18.7478169 C107.976779,18.7478169 106.503185,16.5024193 106.503185,13.3642506 L106.503185,13.3100578 L106.503185,12.6876241 L115.202469,12.6876241 C115.429297,9.46832289 113.474285,6.92502169 109.677201,6.92502169 C106.220202,6.92502169 103.273014,9.65752771 103.273014,13.5265157 C103.273014,17.2598651 105.880117,19.830106 109.677201,19.830106 C112.510502,19.830106 114.125746,18.4232867 115.259255,16.6649976 L114.947564,16.4482265 C113.785977,17.8819855 112.73733,18.7478169 110.95236,18.7478169" id="Fill-9" fill="#1C1C1C"></path>
                    <path d="M124.127509,19.3159325 C122.852666,19.3159325 121.804019,18.7480048 121.208714,17.260053 L121.208714,9.38706506 C122.087318,8.52154699 122.965607,8.03443855 124.04233,8.03443855 C126.280957,8.03443855 127.414466,10.4421012 127.414466,13.3641253 C127.414466,17.260053 126.30935,19.3159325 124.127509,19.3159325 M125.459454,6.92520964 C123.730639,6.92520964 122.342539,7.73684819 121.151928,8.87333012 L121.151928,7.71398072 C121.151928,7.19523373 120.711522,6.77422169 120.167639,6.77422169 L118.237549,6.77422169 L116.549746,6.77422169 L115.793547,6.77422169 L115.793547,7.09906506 C117.353582,7.12475181 118.191805,7.94735422 118.233448,9.58253494 L118.233448,22.9123904 C118.191805,24.5475711 117.353582,25.3701735 115.793547,25.3958602 L115.793547,25.7207036 L116.549746,25.7207036 L118.237549,25.7207036 L121.208714,25.7207036 L123.652716,25.7207036 L123.652716,25.3958602 C122.051985,25.369547 121.208714,24.5065349 121.208714,22.7852096 L121.208714,19.0455952 C122.228967,19.5593301 123.192435,19.830294 124.609243,19.830294 C128.321148,19.830294 130.616245,16.9352096 130.616245,13.2018602 C130.616245,9.57658313 128.746411,6.92520964 125.459454,6.92520964" id="Fill-11" fill="#1C1C1C"></path>
                    <g id="Group-15" transform="translate(137.548068, 6.925523)">
                        <mask id="mask-4" fill="white">
                            <use xlink:href="#path-3"></use>
                        </mask>
                        <g id="Clip-14"></g>
                        <path d="M10.1419617,0.216207229 L10.1419617,0.540737349 C11.010155,0.540737349 11.5871628,0.720857831 11.8846578,1.10897831 C12.2597602,1.59827952 12.1903553,2.41806265 11.7004191,3.62502651 L9.17849423,9.79329157 L5.33251145,0.986809639 C5.12871316,0.520375904 4.65108065,0.216207229 4.1213944,0.216207229 L0.25301273,0.216207229 L0.25301273,0.540737349 C1.64142797,0.70300241 2.12284621,1.16285783 2.8030151,2.56999036 L7.76168604,12.985653 L7.59195929,13.3643759 C6.20354405,16.6378699 5.1268203,17.3953157 3.99331065,17.530641 C4.36178804,17.2333639 4.61637816,16.7462554 4.61637816,16.1780145 C4.61637816,15.2583036 3.9081318,14.5547373 3.02952774,14.5547373 C1.95311947,14.5547373 1.41459985,15.3663759 1.41459985,16.2052675 C1.41459985,17.2603036 2.26481096,18.1258217 3.62514873,18.1258217 C5.24007662,18.1258217 6.60009892,17.1519181 8.10208596,13.688906 L12.7493809,2.86726747 C13.4008413,1.43350843 14.2791299,0.676062651 15.2709903,0.540737349 L15.2709903,0.216207229 L10.1419617,0.216207229 Z" id="Fill-13" fill="#1C1C1C" mask="url(#mask-4)"></path>
                    </g>
                    <g id="Group-18" transform="translate(130.607569, 0.033957)">
                        <mask id="mask-6" fill="white">
                            <use xlink:href="#path-5"></use>
                        </mask>
                        <g id="Clip-17"></g>
                        <path d="M5.62577907,16.6441036 L5.62577907,1.2188988 C5.62577907,0.700151807 5.18537287,0.279139759 4.64149014,0.279139759 L2.65082889,0.279139759 L0.206826865,0.279139759 L0.206826865,0.603983133 C1.80755828,0.630296386 2.65082889,1.49330843 2.65082889,3.21463373 L2.65082889,16.6441036 C2.65082889,18.3654289 1.80755828,19.228441 0.206826865,19.2547542 L0.206826865,19.5795976 L2.65082889,19.5795976 L5.62577907,19.5795976 L8.06978109,19.5795976 L8.06978109,19.2547542 C6.46904968,19.228441 5.62577907,18.3654289 5.62577907,16.6441036" id="Fill-16" fill="#1C1C1C" mask="url(#mask-6)"></path>
                    </g>
                    <path d="M76.8136238,19.0996313 L74.9150819,19.0996313 L74.9150819,1.27083614 L76.8988027,1.27083614 C81.8574736,1.27083614 84.3226126,3.02943855 84.3226126,10.0635349 C84.3226126,17.0164988 82.4808566,19.0996313 76.8136238,19.0996313 M77.3805364,0.756787952 L74.4787769,0.756787952 L71.8454886,0.756787952 L69.1557298,0.756787952 L69.1557298,1.08163133 C70.7564612,1.10794458 71.5997318,1.97064337 71.5997318,3.69196867 L71.5997318,16.6781855 C71.5997318,18.3995108 70.7564612,19.2625229 69.1557298,19.2888361 L69.1557298,19.6136795 L72.7752,19.6136795 L74.4787769,19.6136795 L77.7203054,19.6136795 C84.9459956,19.6136795 88.0629105,14.8519205 88.0629105,9.84676386 C88.0629105,4.65240241 84.4077915,0.756787952 77.3805364,0.756787952" id="Fill-19" fill="#1C1C1C"></path>
                    <path d="M26.6784888,7.43906988 C28.8035434,7.43906988 29.5117897,9.22461205 29.2284912,12.2005157 L23.7313006,12.2005157 C23.9297358,9.0896 24.9780666,7.43906988 26.6784888,7.43906988 M28.1517674,18.7478169 C25.1765018,18.7478169 23.7032232,16.5024193 23.7032232,13.3642506 L23.7032232,13.3100578 L23.7032232,12.6876241 L32.402192,12.6876241 C32.6287047,9.46832289 30.6736923,6.92502169 26.876924,6.92502169 C23.4196092,6.92502169 20.4730519,9.65752771 20.4730519,13.5265157 C20.4730519,17.2598651 23.0795247,19.830106 26.876924,19.830106 C29.7102249,19.830106 31.3251528,18.4232867 32.4589779,16.6649976 L32.146971,16.4482265 C30.9853838,17.8819855 29.937053,18.7478169 28.1517674,18.7478169" id="Fill-21" fill="#1C1C1C"></path>
                </g>
            </g>
        </g>
    </g>
</svg>