<?xml version="1.0" encoding="UTF-8"?>
<svg width="24px" height="21px" viewBox="0 0 24 21" version="1.1" xmlns="http://www.w3.org/2000/svg" xmlns:xlink="http://www.w3.org/1999/xlink">
    <!-- Generator: Sketch 42 (36781) - http://www.bohemiancoding.com/sketch -->
    <title>Group 2</title>
    <desc>Created with Sketch.</desc>
    <defs></defs>
    <g id="Symbols" stroke="none" stroke-width="1" fill="none" fill-rule="evenodd">
        <g id="Footer" transform="translate(-1008.000000, -51.000000)">
            <g id="Group-5" transform="translate(1008.000000, 48.000000)">
                <g id="Group-2" transform="translate(0.000000, 3.000000)">
                    <path d="M16.6096,0.0812444835 C16.2452571,-0.100926945 15.9472,0.0833016263 15.9472,0.490615912 L15.9472,16.6938159 L22.5961143,20.0183873 C23.3277714,20.3841016 23.9209143,20.1281016 23.9209143,19.4465016 L23.9209143,3.84330163 C23.9209143,3.77815877 23.8838857,3.71827305 23.8256,3.68901591 L16.6096,0.0812444835" id="Fill-1" fill="#CCCDC9"></path>
                    <path d="M7.97371429,12.7070731 L15.5590857,0.380673055 C15.7725714,0.0337016263 16.2452571,-0.100926945 16.6096,0.0812444835 L23.8338286,3.6931302 C23.8806857,3.71667305 23.8973714,3.77518734 23.8699429,3.81975877 L15.9472,16.6938159 L7.97371429,12.7070731" id="Fill-2" fill="#9EA1A0"></path>
                    <path d="M1.104,0.302044483 C0.496685714,-0.00172694509 0.290971429,0.222958769 0.646857143,0.801244483 L7.97371429,12.7070731 L15.9472,16.6938159 L7.99085714,3.76467305 C7.97965714,3.74638734 7.96342857,3.73175877 7.94422857,3.72215877 L1.104,0.302044483" id="Fill-3" fill="#797B79"></path>
                    <path d="M7.97371429,19.4465016 C7.97371429,20.1253588 7.4768,20.4323302 6.86971429,20.1287873 L0.6624,17.0250159 C0.298057143,16.8428445 0,16.3605588 0,15.9532445 L0,0.737473055 C0,0.194387341 0.397485714,-0.0513269451 0.8832,0.191644483 L7.93074286,3.71530163 C7.95702857,3.72855877 7.97371429,3.75530163 7.97371429,3.78455877 L7.97371429,19.4465016" id="Fill-4" fill="#515251"></path>
                </g>
            </g>
        </g>
    </g>
</svg>